<svg xmlns="http://www.w3.org/2000/svg" xmlns:xlink="http://www.w3.org/1999/xlink" viewBox="0 0 1520.4985 400"><defs><linearGradient id="linear-gradient" x1="-6.5327" y1="324.1642" x2="241.775" y2="75.8565" gradientUnits="userSpaceOnUse"><stop offset="0" stop-color="#ff00c7"/><stop offset="0.5237" stop-color="#434cff"/><stop offset="1" stop-color="#0cd"/></linearGradient></defs><g id="Layer_2" data-name="Layer 2"><g id="Layer_1-2" data-name="Layer 1"><path d="M477.0927,100.6373h19.1V300.1891h-19.1v-94.36H364.7739v94.36H345.6728V100.6373h19.1011v87.5174H477.0927Z" style="fill:#fff"/><path d="M522.79,228.3507c0-43.3321,30.2188-74.12,72.41-74.12,42.19,0,72.4087,30.7877,72.4087,74.12s-30.2188,74.12-72.4087,74.12C553.0092,302.4705,522.79,271.6813,522.79,228.3507Zm126.0039,0c0-33.6394-21.6653-57.586-53.5936-57.586s-53.5952,23.9466-53.5952,57.586c0,33.6378,21.6668,57.5845,53.5952,57.5845S648.7943,261.9885,648.7943,228.3507Z" style="fill:#fff"/><path d="M691.5847,300.1891V98.3559h17.96V300.1891Z" style="fill:#fff"/><path d="M733.0628,228.3507c0-43.3321,30.2188-74.12,72.41-74.12s72.4088,30.7877,72.4088,74.12-30.2188,74.12-72.4088,74.12S733.0628,271.6813,733.0628,228.3507Zm126.0039,0c0-33.6394-21.6653-57.586-53.5937-57.586s-53.5951,23.9466-53.5951,57.586c0,33.6378,21.6668,57.5845,53.5951,57.5845S859.0667,261.9885,859.0667,228.3507Z" style="fill:#fff"/><path d="M1015.6356,156.5123h17.9589V305.891c0,30.5032-21.9512,52.4529-52.7389,52.4529H914.4331V341.81h66.4225c20.24,0,34.78-15.1087,34.78-35.9192V278.8082c-6.5581,13.9695-27.0827,23.6623-49.8887,23.6623-45.6119,0-69.843-33.0691-69.843-74.12s24.2311-74.12,69.843-74.12c19.9558,0,40.7663,10.5475,49.8887,25.3717Zm1.9955,71.8384c0-34.78-20.24-57.586-51.3138-57.586s-51.3138,22.8059-51.3138,57.586c0,34.7785,20.24,57.5845,51.3138,57.5845S1017.6311,263.1292,1017.6311,228.3507Z" style="fill:#fff"/><path d="M1140.2942,173.046H1121.479c-31.6424,0-39.91,29.0782-39.91,65.8522v61.2909H1063.61V156.5123h17.9589V187.014c5.7018-19.9543,17.6744-30.5017,39.91-30.5017h18.8152Z" style="fill:#fff"/><path d="M1144.6,228.3507c0-41.0508,24.2311-74.12,69.843-74.12,19.67,0,40.48,10.5475,49.8887,25.3717v-23.09H1282.29V300.1891h-17.9589v-23.09c-6.2722,13.968-27.0827,25.3718-49.8887,25.3718C1168.8306,302.4705,1144.6,269.4014,1144.6,228.3507Zm121.7272,0c0-34.78-20.24-57.586-51.3138-57.586s-51.3138,22.8059-51.3138,57.586c0,34.7785,20.24,57.5845,51.3138,57.5845S1266.3267,263.1292,1266.3267,228.3507Z" style="fill:#fff"/><path d="M1314.6759,300.1891V156.5123h17.9589v29.9314c4.8471-18.8136,21.3809-32.2128,44.1868-32.2128,23.9467,0,43.6165,11.4037,48.1777,31.9284,4.8456-18.2448,24.517-31.9284,45.8964-31.9284,31.0736,0,49.6028,20.24,49.6028,56.73v89.2284H1502.54V214.9515c0-26.2265-12.8288-44.1868-34.4941-44.1868-26.2265,0-41.6211,17.96-41.6211,44.1868v85.2376h-17.9588V214.9515c0-26.2265-12.8289-44.1868-34.21-44.1868-26.2265,0-41.6211,17.96-41.6211,44.1868v85.2376Z" style="fill:#fff"/><path d="M235.2488,331.3375l-.0263-259.9427a5.0487,5.0487,0,0,0-2.5247-4.3719L117.7714.6837a5.0486,5.0486,0,0,0-7.5725,4.3724V123.5486L7.5727,64.3039A5.0486,5.0486,0,0,0,0,68.6762V328.6055a5.0486,5.0486,0,0,0,2.5245,4.3723l114.9123,66.3384a5.0486,5.0486,0,0,0,7.5727-4.3723V276.4485L227.6764,335.71A5.0485,5.0485,0,0,0,235.2488,331.3375ZM220.4115,85.5756l.0138,101.6167-88.007-50.8152ZM213.03,200.0278,125.01,250.8258V149.2022Zm-102.8314,50.767L22.216,200l87.9829-50.7945ZM220.4253,212.86l.0138,101.5788-87.9933-50.8015ZM102.7936,136.3771l-87.983,50.7946V85.5756Zm.0206,127.26L14.8106,314.4283V212.8288ZM213.0131,72.7436,125.01,123.552V21.9422ZM22.2125,327.26l87.9864-50.7843V378.0583Z" style="fill:url(#linear-gradient)"/></g></g></svg>